<mxfile host="app.diagrams.net" modified="2020-05-13T14:37:08.286Z" agent="5.0 (Windows NT 6.1; Win64; x64) AppleWebKit/537.36 (KHTML, like Gecko) Chrome/71.0.3578.98 Safari/537.36" etag="1hSeqn33vEvpHZJUMLvQ" version="13.1.1" type="github">
  <diagram id="inYkrisZdpCWvH0mylS8" name="Page-1">
    <mxGraphModel dx="868" dy="482" grid="1" gridSize="10" guides="1" tooltips="1" connect="1" arrows="1" fold="1" page="1" pageScale="1" pageWidth="827" pageHeight="1169" math="0" shadow="0">
      <root>
        <mxCell id="0" />
        <mxCell id="1" parent="0" />
        <mxCell id="4Zabpoj7PgC8b4IljEoc-1" value="" style="image;html=1;labelBackgroundColor=#ffffff;image=img/lib/clip_art/people/Worker_Man_128x128.png" parent="1" vertex="1">
          <mxGeometry x="847" y="130" width="80" height="80" as="geometry" />
        </mxCell>
        <mxCell id="4Zabpoj7PgC8b4IljEoc-2" value="" style="image;html=1;labelBackgroundColor=#ffffff;image=img/lib/clip_art/people/Worker_Man_128x128.png" parent="1" vertex="1">
          <mxGeometry x="860" y="210" width="80" height="80" as="geometry" />
        </mxCell>
        <mxCell id="4Zabpoj7PgC8b4IljEoc-3" value="" style="image;html=1;labelBackgroundColor=#ffffff;image=img/lib/clip_art/people/Suit_Man_128x128.png" parent="1" vertex="1">
          <mxGeometry x="1050" y="100" width="80" height="80" as="geometry" />
        </mxCell>
        <mxCell id="4Zabpoj7PgC8b4IljEoc-4" value="" style="image;html=1;labelBackgroundColor=#ffffff;image=img/lib/clip_art/people/Suit_Man_Black_128x128.png" parent="1" vertex="1">
          <mxGeometry x="1080" y="180" width="80" height="80" as="geometry" />
        </mxCell>
        <mxCell id="4Zabpoj7PgC8b4IljEoc-5" value="" style="image;html=1;labelBackgroundColor=#ffffff;image=img/lib/clip_art/computers/Database_128x128.png" parent="1" vertex="1">
          <mxGeometry x="180" y="80" width="80" height="80" as="geometry" />
        </mxCell>
        <mxCell id="4Zabpoj7PgC8b4IljEoc-6" value="" style="image;html=1;labelBackgroundColor=#ffffff;image=img/lib/clip_art/computers/Database_128x128.png" parent="1" vertex="1">
          <mxGeometry x="160" y="170" width="80" height="80" as="geometry" />
        </mxCell>
        <mxCell id="4Zabpoj7PgC8b4IljEoc-7" value="" style="image;html=1;labelBackgroundColor=#ffffff;image=img/lib/clip_art/computers/Database_128x128.png" parent="1" vertex="1">
          <mxGeometry x="160" y="280" width="80" height="80" as="geometry" />
        </mxCell>
        <mxCell id="4Zabpoj7PgC8b4IljEoc-8" value="" style="image;html=1;labelBackgroundColor=#ffffff;image=img/lib/clip_art/computers/Database_128x128.png" parent="1" vertex="1">
          <mxGeometry x="200" y="370" width="80" height="80" as="geometry" />
        </mxCell>
        <mxCell id="4Zabpoj7PgC8b4IljEoc-9" value="" style="image;html=1;labelBackgroundColor=#ffffff;image=img/lib/clip_art/computers/Database_128x128.png" parent="1" vertex="1">
          <mxGeometry x="370" y="220" width="80" height="80" as="geometry" />
        </mxCell>
        <mxCell id="4Zabpoj7PgC8b4IljEoc-10" value="" style="edgeStyle=orthogonalEdgeStyle;html=1;endArrow=block;elbow=vertical;startArrow=none;endFill=1;strokeColor=#545B64;rounded=0;" parent="1" source="4Zabpoj7PgC8b4IljEoc-5" target="4Zabpoj7PgC8b4IljEoc-9" edge="1">
          <mxGeometry width="100" relative="1" as="geometry">
            <mxPoint x="300" y="130" as="sourcePoint" />
            <mxPoint x="400" y="130" as="targetPoint" />
            <Array as="points">
              <mxPoint x="380" y="130" />
            </Array>
          </mxGeometry>
        </mxCell>
        <mxCell id="4Zabpoj7PgC8b4IljEoc-11" value="" style="edgeStyle=orthogonalEdgeStyle;html=1;endArrow=block;elbow=vertical;startArrow=none;endFill=1;strokeColor=#545B64;rounded=0;" parent="1" source="4Zabpoj7PgC8b4IljEoc-6" target="4Zabpoj7PgC8b4IljEoc-9" edge="1">
          <mxGeometry width="100" relative="1" as="geometry">
            <mxPoint x="500" y="230" as="sourcePoint" />
            <mxPoint x="600" y="230" as="targetPoint" />
          </mxGeometry>
        </mxCell>
        <mxCell id="4Zabpoj7PgC8b4IljEoc-12" value="" style="edgeStyle=orthogonalEdgeStyle;html=1;endArrow=block;elbow=vertical;startArrow=none;endFill=1;strokeColor=#545B64;rounded=0;entryX=0;entryY=0.75;entryDx=0;entryDy=0;" parent="1" source="4Zabpoj7PgC8b4IljEoc-7" target="4Zabpoj7PgC8b4IljEoc-9" edge="1">
          <mxGeometry width="100" relative="1" as="geometry">
            <mxPoint x="240" y="340" as="sourcePoint" />
            <mxPoint x="340" y="340" as="targetPoint" />
          </mxGeometry>
        </mxCell>
        <mxCell id="4Zabpoj7PgC8b4IljEoc-13" value="" style="edgeStyle=orthogonalEdgeStyle;html=1;endArrow=block;elbow=vertical;startArrow=none;endFill=1;strokeColor=#545B64;rounded=0;" parent="1" source="4Zabpoj7PgC8b4IljEoc-8" target="4Zabpoj7PgC8b4IljEoc-9" edge="1">
          <mxGeometry width="100" relative="1" as="geometry">
            <mxPoint x="500" y="230" as="sourcePoint" />
            <mxPoint x="600" y="230" as="targetPoint" />
            <Array as="points">
              <mxPoint x="370" y="410" />
            </Array>
          </mxGeometry>
        </mxCell>
        <mxCell id="4Zabpoj7PgC8b4IljEoc-14" value="&lt;font size=&quot;1&quot;&gt;&lt;b style=&quot;font-size: 22px&quot;&gt;AS-IS DW MRS&lt;/b&gt;&lt;/font&gt;" style="text;html=1;resizable=0;autosize=1;align=center;verticalAlign=middle;points=[];fillColor=none;strokeColor=none;rounded=0;" parent="1" vertex="1">
          <mxGeometry x="135" y="20" width="170" height="20" as="geometry" />
        </mxCell>
        <mxCell id="YMRhmF-9sDAdHVnkn950-1" value="ORAJFP05&lt;br&gt;SGBD: Oracle 11g&lt;br&gt;ETL em:&lt;br&gt;-OWB&lt;br&gt;-PL/SQL" style="text;html=1;resizable=0;autosize=1;align=left;verticalAlign=middle;points=[];fillColor=none;strokeColor=none;rounded=0;textDirection=ltr;" vertex="1" parent="1">
          <mxGeometry x="420" y="300" width="110" height="80" as="geometry" />
        </mxCell>
        <mxCell id="YMRhmF-9sDAdHVnkn950-2" value="" style="image;html=1;labelBackgroundColor=#ffffff;image=img/lib/clip_art/computers/Laptop_128x128.png;align=left;" vertex="1" parent="1">
          <mxGeometry x="740" y="140" width="80" height="80" as="geometry" />
        </mxCell>
        <mxCell id="YMRhmF-9sDAdHVnkn950-3" value="" style="image;html=1;labelBackgroundColor=#ffffff;image=img/lib/clip_art/computers/Database_128x128.png;align=left;" vertex="1" parent="1">
          <mxGeometry x="570" y="40" width="80" height="80" as="geometry" />
        </mxCell>
        <mxCell id="YMRhmF-9sDAdHVnkn950-4" value="" style="edgeStyle=orthogonalEdgeStyle;html=1;endArrow=block;elbow=vertical;startArrow=none;endFill=1;strokeColor=#545B64;rounded=0;" edge="1" parent="1" source="4Zabpoj7PgC8b4IljEoc-9" target="YMRhmF-9sDAdHVnkn950-3">
          <mxGeometry width="100" relative="1" as="geometry">
            <mxPoint x="270" y="140" as="sourcePoint" />
            <mxPoint x="420" y="230" as="targetPoint" />
            <Array as="points">
              <mxPoint x="454" y="260" />
              <mxPoint x="454" y="80" />
            </Array>
          </mxGeometry>
        </mxCell>
        <mxCell id="YMRhmF-9sDAdHVnkn950-5" value="Oracle Planning" style="text;html=1;resizable=0;autosize=1;align=center;verticalAlign=middle;points=[];fillColor=none;strokeColor=none;rounded=0;" vertex="1" parent="1">
          <mxGeometry x="640" y="60" width="100" height="20" as="geometry" />
        </mxCell>
        <mxCell id="YMRhmF-9sDAdHVnkn950-6" value="" style="edgeStyle=orthogonalEdgeStyle;html=1;endArrow=block;elbow=vertical;startArrow=none;endFill=1;strokeColor=#545B64;rounded=0;exitX=1;exitY=0.5;exitDx=0;exitDy=0;" edge="1" parent="1" source="4Zabpoj7PgC8b4IljEoc-9" target="YMRhmF-9sDAdHVnkn950-2">
          <mxGeometry width="100" relative="1" as="geometry">
            <mxPoint x="464" y="261.03999999999996" as="sourcePoint" />
            <mxPoint x="730" y="190" as="targetPoint" />
            <Array as="points">
              <mxPoint x="464" y="260" />
              <mxPoint x="464" y="180" />
            </Array>
          </mxGeometry>
        </mxCell>
        <mxCell id="YMRhmF-9sDAdHVnkn950-7" value="Oracle Discoverer" style="text;html=1;resizable=0;autosize=1;align=center;verticalAlign=middle;points=[];fillColor=none;strokeColor=none;rounded=0;" vertex="1" parent="1">
          <mxGeometry x="725" y="220" width="110" height="20" as="geometry" />
        </mxCell>
        <mxCell id="YMRhmF-9sDAdHVnkn950-8" value="" style="image;html=1;labelBackgroundColor=#ffffff;image=img/lib/clip_art/computers/Laptop_128x128.png;align=left;" vertex="1" parent="1">
          <mxGeometry x="750" y="230" width="80" height="80" as="geometry" />
        </mxCell>
        <mxCell id="YMRhmF-9sDAdHVnkn950-9" value="" style="edgeStyle=orthogonalEdgeStyle;html=1;endArrow=block;elbow=vertical;startArrow=none;endFill=1;strokeColor=#545B64;rounded=0;" edge="1" parent="1" target="YMRhmF-9sDAdHVnkn950-8" source="4Zabpoj7PgC8b4IljEoc-9">
          <mxGeometry width="100" relative="1" as="geometry">
            <mxPoint x="460" y="350" as="sourcePoint" />
            <mxPoint x="740" y="280" as="targetPoint" />
            <Array as="points">
              <mxPoint x="460" y="270" />
              <mxPoint x="460" y="270" />
            </Array>
          </mxGeometry>
        </mxCell>
        <mxCell id="YMRhmF-9sDAdHVnkn950-10" value="MRS Consultas" style="text;html=1;resizable=0;autosize=1;align=center;verticalAlign=middle;points=[];fillColor=none;strokeColor=none;rounded=0;" vertex="1" parent="1">
          <mxGeometry x="740" y="310" width="100" height="20" as="geometry" />
        </mxCell>
        <mxCell id="YMRhmF-9sDAdHVnkn950-11" value="" style="image;html=1;labelBackgroundColor=#ffffff;image=img/lib/clip_art/people/Worker_Man_128x128.png" vertex="1" parent="1">
          <mxGeometry x="890" y="260" width="80" height="80" as="geometry" />
        </mxCell>
        <mxCell id="YMRhmF-9sDAdHVnkn950-12" value="" style="image;html=1;labelBackgroundColor=#ffffff;image=img/lib/clip_art/people/Worker_Woman_128x128.png;align=left;" vertex="1" parent="1">
          <mxGeometry x="870" y="330" width="80" height="80" as="geometry" />
        </mxCell>
        <mxCell id="YMRhmF-9sDAdHVnkn950-13" value="" style="image;html=1;labelBackgroundColor=#ffffff;image=img/lib/clip_art/computers/Server_128x128.png;align=left;" vertex="1" parent="1">
          <mxGeometry x="610" y="340" width="80" height="40" as="geometry" />
        </mxCell>
        <mxCell id="YMRhmF-9sDAdHVnkn950-14" value="" style="edgeStyle=orthogonalEdgeStyle;html=1;endArrow=block;elbow=vertical;startArrow=none;endFill=1;strokeColor=#545B64;rounded=0;exitX=1;exitY=0.75;exitDx=0;exitDy=0;" edge="1" parent="1" source="4Zabpoj7PgC8b4IljEoc-9" target="YMRhmF-9sDAdHVnkn950-13">
          <mxGeometry width="100" relative="1" as="geometry">
            <mxPoint x="460" y="280" as="sourcePoint" />
            <mxPoint x="760" y="280" as="targetPoint" />
            <Array as="points">
              <mxPoint x="650" y="280" />
            </Array>
          </mxGeometry>
        </mxCell>
        <mxCell id="YMRhmF-9sDAdHVnkn950-15" value="Athus" style="text;html=1;resizable=0;autosize=1;align=center;verticalAlign=middle;points=[];fillColor=none;strokeColor=none;rounded=0;" vertex="1" parent="1">
          <mxGeometry x="625" y="390" width="50" height="20" as="geometry" />
        </mxCell>
        <mxCell id="YMRhmF-9sDAdHVnkn950-16" value="" style="edgeStyle=orthogonalEdgeStyle;html=1;endArrow=block;elbow=vertical;startArrow=none;endFill=1;strokeColor=#545B64;rounded=0;align=left;" edge="1" parent="1" source="YMRhmF-9sDAdHVnkn950-19">
          <mxGeometry width="100" relative="1" as="geometry">
            <mxPoint x="690" y="360" as="sourcePoint" />
            <mxPoint x="850" y="360" as="targetPoint" />
            <Array as="points">
              <mxPoint x="700" y="360" />
              <mxPoint x="700" y="360" />
            </Array>
          </mxGeometry>
        </mxCell>
        <mxCell id="YMRhmF-9sDAdHVnkn950-17" value="" style="edgeStyle=orthogonalEdgeStyle;html=1;endArrow=block;elbow=vertical;startArrow=none;endFill=1;strokeColor=#545B64;rounded=0;align=left;" edge="1" parent="1">
          <mxGeometry width="100" relative="1" as="geometry">
            <mxPoint x="691" y="371" as="sourcePoint" />
            <mxPoint x="851" y="371" as="targetPoint" />
            <Array as="points">
              <mxPoint x="701" y="371" />
              <mxPoint x="701" y="371" />
            </Array>
          </mxGeometry>
        </mxCell>
        <mxCell id="YMRhmF-9sDAdHVnkn950-18" value="" style="edgeStyle=orthogonalEdgeStyle;html=1;endArrow=block;elbow=vertical;startArrow=none;endFill=1;strokeColor=#545B64;rounded=0;align=left;" edge="1" parent="1">
          <mxGeometry width="100" relative="1" as="geometry">
            <mxPoint x="690" y="380" as="sourcePoint" />
            <mxPoint x="850" y="380" as="targetPoint" />
            <Array as="points">
              <mxPoint x="700" y="380" />
              <mxPoint x="700" y="380" />
            </Array>
          </mxGeometry>
        </mxCell>
        <mxCell id="YMRhmF-9sDAdHVnkn950-19" value="" style="verticalLabelPosition=bottom;shadow=0;dashed=0;align=center;html=1;verticalAlign=top;strokeWidth=1;shape=mxgraph.mockup.misc.mail2;strokeColor=#999999;" vertex="1" parent="1">
          <mxGeometry x="740" y="355" width="60" height="30" as="geometry" />
        </mxCell>
        <mxCell id="YMRhmF-9sDAdHVnkn950-21" value="Email" style="text;html=1;resizable=0;autosize=1;align=center;verticalAlign=middle;points=[];fillColor=none;strokeColor=none;rounded=0;" vertex="1" parent="1">
          <mxGeometry x="740" y="390" width="50" height="20" as="geometry" />
        </mxCell>
        <mxCell id="YMRhmF-9sDAdHVnkn950-22" value="" style="verticalLabelPosition=bottom;verticalAlign=top;html=1;shape=mxgraph.basic.rect;fillColor2=none;strokeWidth=1;size=20;indent=5;align=left;" vertex="1" parent="1">
          <mxGeometry x="460" y="460" width="390" height="200" as="geometry" />
        </mxCell>
        <mxCell id="YMRhmF-9sDAdHVnkn950-23" value="" style="image;html=1;labelBackgroundColor=#ffffff;image=img/lib/clip_art/computers/Laptop_128x128.png;align=left;" vertex="1" parent="1">
          <mxGeometry x="890" y="470" width="80" height="80" as="geometry" />
        </mxCell>
        <mxCell id="YMRhmF-9sDAdHVnkn950-24" value="Estrutura Qlik" style="text;html=1;resizable=0;autosize=1;align=center;verticalAlign=middle;points=[];fillColor=none;strokeColor=none;rounded=0;fontStyle=1" vertex="1" parent="1">
          <mxGeometry x="460" y="460" width="90" height="20" as="geometry" />
        </mxCell>
        <mxCell id="YMRhmF-9sDAdHVnkn950-25" value="" style="edgeStyle=orthogonalEdgeStyle;html=1;endArrow=block;elbow=vertical;startArrow=none;endFill=1;strokeColor=#545B64;rounded=0;" edge="1" parent="1">
          <mxGeometry width="100" relative="1" as="geometry">
            <mxPoint x="950" y="255" as="sourcePoint" />
            <mxPoint x="1060" y="210" as="targetPoint" />
            <Array as="points">
              <mxPoint x="960" y="255" />
              <mxPoint x="960" y="220" />
              <mxPoint x="1040" y="220" />
            </Array>
          </mxGeometry>
        </mxCell>
        <mxCell id="YMRhmF-9sDAdHVnkn950-28" value="" style="edgeStyle=orthogonalEdgeStyle;html=1;endArrow=block;elbow=vertical;startArrow=none;endFill=1;strokeColor=#545B64;rounded=0;exitX=0.375;exitY=1;exitDx=0;exitDy=0;entryX=-0.005;entryY=0.505;entryDx=0;entryDy=0;entryPerimeter=0;exitPerimeter=0;" edge="1" parent="1" source="4Zabpoj7PgC8b4IljEoc-9" target="YMRhmF-9sDAdHVnkn950-22">
          <mxGeometry width="100" relative="1" as="geometry">
            <mxPoint x="240" y="500" as="sourcePoint" />
            <mxPoint x="440" y="560" as="targetPoint" />
            <Array as="points">
              <mxPoint x="400" y="500" />
              <mxPoint x="440" y="500" />
              <mxPoint x="440" y="561" />
            </Array>
          </mxGeometry>
        </mxCell>
        <mxCell id="YMRhmF-9sDAdHVnkn950-29" value="" style="image;html=1;labelBackgroundColor=#ffffff;image=img/lib/clip_art/general/Full_Folder_128x128.png;align=left;" vertex="1" parent="1">
          <mxGeometry x="220" y="550" width="80" height="80" as="geometry" />
        </mxCell>
        <mxCell id="YMRhmF-9sDAdHVnkn950-30" value="" style="edgeStyle=orthogonalEdgeStyle;html=1;endArrow=block;elbow=vertical;startArrow=none;endFill=1;strokeColor=#545B64;rounded=0;entryX=-0.005;entryY=0.6;entryDx=0;entryDy=0;entryPerimeter=0;exitX=1;exitY=0.5;exitDx=0;exitDy=0;" edge="1" parent="1" source="YMRhmF-9sDAdHVnkn950-29" target="YMRhmF-9sDAdHVnkn950-22">
          <mxGeometry width="100" relative="1" as="geometry">
            <mxPoint x="310" y="560" as="sourcePoint" />
            <mxPoint x="400" y="450" as="targetPoint" />
            <Array as="points">
              <mxPoint x="300" y="580" />
            </Array>
          </mxGeometry>
        </mxCell>
        <mxCell id="YMRhmF-9sDAdHVnkn950-31" value="Arquivos CSV, Excel, etc" style="text;html=1;resizable=0;autosize=1;align=center;verticalAlign=middle;points=[];fillColor=none;strokeColor=none;rounded=0;" vertex="1" parent="1">
          <mxGeometry x="230" y="630" width="150" height="20" as="geometry" />
        </mxCell>
        <mxCell id="YMRhmF-9sDAdHVnkn950-32" value="" style="shadow=0;dashed=0;html=1;strokeColor=none;fillColor=#505050;labelPosition=center;verticalLabelPosition=bottom;verticalAlign=top;outlineConnect=0;align=center;shape=mxgraph.office.databases.database_cube;" vertex="1" parent="1">
          <mxGeometry x="481.5" y="484" width="47" height="52" as="geometry" />
        </mxCell>
        <mxCell id="YMRhmF-9sDAdHVnkn950-33" value="QVDs Corporativos &lt;br&gt;e Departamentais" style="text;html=1;resizable=0;autosize=1;align=center;verticalAlign=middle;points=[];fillColor=none;strokeColor=none;rounded=0;" vertex="1" parent="1">
          <mxGeometry x="460" y="545" width="120" height="30" as="geometry" />
        </mxCell>
        <mxCell id="YMRhmF-9sDAdHVnkn950-34" value="" style="shadow=0;dashed=0;html=1;strokeColor=none;fillColor=#505050;labelPosition=center;verticalLabelPosition=bottom;verticalAlign=top;outlineConnect=0;align=center;shape=mxgraph.office.databases.database_cube;" vertex="1" parent="1">
          <mxGeometry x="530" y="498" width="47" height="52" as="geometry" />
        </mxCell>
      </root>
    </mxGraphModel>
  </diagram>
</mxfile>
